<svg id="logo" xmlns="http://www.w3.org/2000/svg" viewBox="0 0 182 206"><defs><style>.cls-3{fill:#009688;}.cls-4{fill:#fff;opacity:0.08;}.cls-5{fill:#eae1df;}</style></defs><title>logo</title><g id="texto"><polygon id="escudo" class="cls-3" points="165 185 91 206 17 185 0 0 182 0 165 185"/><polygon id="brilho" class="cls-4" points="154.65 173.53 91 192.53 91 13.47 169.47 15.47 154.65 173.53"/><g id="tag"><path class="cls-5" d="M45.56,123.42V109.86L75,80.7l5.25,13.2L55.92,116.58l24.32,22.2-5.4,13.68Z" transform="translate(-16.93 -19.21)"/><path class="cls-5" d="M96.9,167.7l-9.38-6.84L119,56.22l9.31,6.84Z" transform="translate(-16.93 -19.21)"/><path class="cls-5" d="M170.31,109.74v13.68l-29.27,29-5.4-13.08,24.32-22.8L135.63,94.5,141,80.7Z" transform="translate(-16.93 -19.21)"/></g></g></svg>
