<svg xmlns="http://www.w3.org/2000/svg" xmlns:xlink="http://www.w3.org/1999/xlink" version="1.1" x="0px" y="0px" viewBox="0 0 100 100" enable-background="new 0 0 100 100" xml:space="preserve"><path fill="#fff" d="M48.144,5.823c1.166,0,2.332,0,3.498,0c0.065,0.012,0.13,0.033,0.195,0.037c0.801,0.047,1.603,0.076,2.403,0.139  c1.704,0.136,3.402,0.335,5.067,0.737c1.365,0.329,2.348,1.435,2.532,2.828c0.309,2.338,0.617,4.676,0.911,7.016  c0.027,0.219,0.117,0.305,0.308,0.375c0.387,0.141,0.77,0.291,1.137,0.469c0.21,0.102,0.351,0.085,0.535-0.057  c1.797-1.393,3.602-2.775,5.404-4.16c1.389-1.067,2.775-1.13,4.237-0.177c2.596,1.695,4.916,3.727,7.099,5.916  c2.15,2.156,4.142,4.446,5.805,7.006c0.907,1.397,0.835,2.82-0.184,4.145c-1.403,1.825-2.804,3.651-4.212,5.472  c-0.122,0.156-0.138,0.276-0.055,0.456c0.178,0.38,0.342,0.768,0.479,1.163c0.077,0.22,0.196,0.308,0.42,0.335  c2.265,0.288,4.526,0.59,6.79,0.875c1.631,0.205,2.71,1.153,3.069,2.76c0.453,2.028,0.663,4.088,0.778,6.16  c0.13,2.35,0.113,4.699-0.06,7.047c-0.135,1.8-0.344,3.593-0.748,5.355c-0.322,1.409-1.433,2.403-2.869,2.593  c-2.339,0.304-4.676,0.611-7.016,0.913c-0.186,0.024-0.277,0.099-0.342,0.275c-0.146,0.403-0.311,0.802-0.492,1.189  c-0.095,0.199-0.075,0.33,0.06,0.505c1.395,1.798,2.778,3.601,4.163,5.404c1.078,1.403,1.137,2.785,0.171,4.262  c-1.646,2.515-3.604,4.769-5.719,6.894c-2.201,2.21-4.542,4.262-7.163,5.97c-1.431,0.934-2.842,0.867-4.192-0.173  c-1.824-1.402-3.648-2.807-5.479-4.204c-0.086-0.066-0.249-0.11-0.345-0.074c-0.465,0.169-0.924,0.361-1.375,0.564  c-0.082,0.038-0.171,0.152-0.183,0.241c-0.316,2.355-0.626,4.713-0.929,7.071c-0.18,1.403-1.181,2.543-2.564,2.863  c-1.996,0.463-4.028,0.674-6.069,0.803c-0.694,0.044-1.391,0.079-2.085,0.116c-0.822,0-1.644,0-2.465,0  c-0.247-0.018-0.494-0.043-0.74-0.053c-2.419-0.087-4.821-0.312-7.194-0.811c-1.526-0.32-2.584-1.413-2.78-2.894  c-0.312-2.357-0.616-4.716-0.933-7.07c-0.014-0.104-0.119-0.235-0.215-0.279c-0.406-0.188-0.83-0.337-1.237-0.523  c-0.188-0.087-0.317-0.074-0.486,0.058c-1.812,1.403-3.632,2.797-5.449,4.194c-1.351,1.039-2.759,1.101-4.193,0.169  c-2.6-1.692-4.918-3.724-7.104-5.913c-2.163-2.169-4.168-4.473-5.84-7.051c-0.878-1.354-0.81-2.797,0.173-4.075  c1.396-1.818,2.792-3.638,4.197-5.449c0.163-0.21,0.185-0.367,0.065-0.605c-0.188-0.373-0.338-0.769-0.481-1.163  c-0.058-0.161-0.149-0.217-0.308-0.237c-2.254-0.29-4.506-0.588-6.762-0.873c-1.806-0.23-2.841-1.174-3.211-2.953  c-0.552-2.657-0.761-5.348-0.813-8.057c-0.006-0.303-0.027-0.608-0.041-0.911c0-0.039,0-0.077,0-0.115  c0.011-0.085,0.028-0.168,0.031-0.253c0.048-1.212,0.069-2.427,0.146-3.637c0.115-1.822,0.341-3.631,0.746-5.414  c0.302-1.326,1.376-2.362,2.674-2.559c1.019-0.155,2.043-0.275,3.066-0.408c1.382-0.182,2.764-0.364,4.147-0.538  c0.185-0.023,0.274-0.099,0.339-0.275c0.15-0.411,0.317-0.817,0.502-1.214c0.084-0.181,0.067-0.3-0.054-0.456  c-1.403-1.813-2.798-3.632-4.196-5.449c-1.043-1.354-1.112-2.765-0.184-4.192c1.703-2.616,3.747-4.948,5.951-7.144  c2.164-2.155,4.461-4.153,7.033-5.816c1.354-0.875,2.796-0.8,4.073,0.183c1.833,1.41,3.665,2.82,5.503,4.223  c0.095,0.071,0.266,0.127,0.367,0.091c0.467-0.167,0.923-0.361,1.375-0.564c0.083-0.037,0.173-0.15,0.185-0.239  c0.312-2.309,0.619-4.618,0.914-6.929c0.209-1.631,1.173-2.705,2.774-3.054c1.889-0.412,3.805-0.623,5.731-0.747  C47.003,5.898,47.573,5.86,48.144,5.823z M44.27,12.865c-0.007,0.024-0.021,0.05-0.023,0.078c-0.288,2.187-0.584,4.373-0.858,6.561  c-0.184,1.466-0.925,2.491-2.33,2.974c-1.6,0.549-3.154,1.199-4.677,1.936c-1.255,0.607-2.47,0.47-3.583-0.372  c-1.257-0.951-2.5-1.919-3.751-2.88c-0.565-0.436-1.132-0.87-1.714-1.316c-2.983,2.349-5.637,4.995-7.966,7.969  c0.077,0.104,0.134,0.181,0.192,0.256c1.333,1.734,2.672,3.465,3.998,5.204c0.824,1.081,1.001,2.275,0.415,3.502  c-0.762,1.595-1.438,3.221-2.027,4.887c-0.438,1.239-1.37,1.973-2.662,2.16c-2.202,0.318-4.41,0.591-6.618,0.865  c-0.262,0.032-0.337,0.136-0.351,0.364c-0.095,1.611-0.231,3.22-0.285,4.833c-0.063,1.931,0.065,3.858,0.283,5.778  c0.021,0.173,0.005,0.349,0.271,0.382c2.103,0.265,4.202,0.562,6.307,0.807c1.597,0.187,2.669,0.977,3.171,2.522  c0.499,1.536,1.144,3.011,1.854,4.462c0.632,1.287,0.492,2.52-0.376,3.656c-1.224,1.604-2.458,3.197-3.686,4.796  c-0.163,0.21-0.324,0.422-0.491,0.64c2.349,2.981,4.993,5.63,7.966,7.964c0.107-0.079,0.199-0.146,0.29-0.214  c1.726-1.327,3.449-2.66,5.182-3.979c1.062-0.809,2.243-0.996,3.451-0.428c1.625,0.765,3.276,1.454,4.967,2.059  c1.198,0.428,1.92,1.335,2.113,2.6c0.216,1.415,0.383,2.839,0.569,4.258c0.119,0.899,0.237,1.797,0.354,2.689  c0.056,0.019,0.09,0.037,0.128,0.04c0.589,0.062,1.177,0.137,1.767,0.182c3.048,0.223,6.09,0.192,9.128-0.161  c0.178-0.021,0.259-0.067,0.284-0.266c0.272-2.15,0.564-4.298,0.838-6.447c0.188-1.478,0.948-2.492,2.368-2.975  c1.555-0.53,3.071-1.15,4.542-1.885c1.314-0.654,2.567-0.521,3.733,0.374c1.296,0.995,2.591,1.993,3.887,2.988  c0.504,0.387,1.01,0.774,1.506,1.154c0.044-0.023,0.062-0.03,0.077-0.041c2.9-2.275,5.491-4.861,7.78-7.749  c0.14-0.175,0.057-0.262-0.04-0.387c-1.357-1.764-2.725-3.521-4.066-5.295c-0.783-1.038-0.949-2.203-0.397-3.379  c0.771-1.643,1.461-3.313,2.08-5.02c0.442-1.221,1.387-1.919,2.678-2.097c2.062-0.285,4.127-0.544,6.19-0.813  c0.676-0.089,0.676-0.09,0.77-0.771c0.011-0.076,0.02-0.151,0.027-0.229c0.242-2.398,0.302-4.806,0.169-7.213  c-0.054-0.963-0.156-1.923-0.24-2.884c-0.013-0.152-0.028-0.279-0.25-0.307c-2.188-0.276-4.374-0.567-6.561-0.853  c-1.399-0.183-2.376-0.929-2.842-2.254c-0.567-1.614-1.209-3.191-1.96-4.729c-0.61-1.255-0.467-2.468,0.375-3.583  c0.689-0.915,1.395-1.819,2.094-2.728c0.698-0.908,1.397-1.816,2.103-2.736c-2.345-2.98-4.993-5.636-7.967-7.967  c-0.105,0.078-0.183,0.135-0.258,0.192c-1.734,1.333-3.466,2.67-5.204,3.997c-1.043,0.796-2.211,1.008-3.396,0.456  c-1.673-0.777-3.371-1.477-5.101-2.112c-1.162-0.428-1.858-1.33-2.04-2.56c-0.255-1.709-0.46-3.425-0.687-5.139  c-0.08-0.612-0.161-1.224-0.241-1.825C53.115,12.394,46.034,12.402,44.27,12.865z"/><path fill="#fff" fill-rule="evenodd" clip-rule="evenodd" d="M49.9,71.646c-11.734,0.001-21.284-9.549-21.277-21.28  c0.006-11.741,9.546-21.269,21.292-21.263c11.721,0.006,21.259,9.557,21.249,21.275C71.152,62.107,61.619,71.644,49.9,71.646z   M49.889,35.775c-8.028,0.002-14.586,6.55-14.588,14.566c-0.003,8.074,6.513,14.605,14.583,14.619  c8.039,0.014,14.601-6.532,14.604-14.571C64.489,42.326,57.941,35.772,49.889,35.775z"/></svg>
